<svg xmlns="http://www.w3.org/2000/svg" xmlns:xlink="http://www.w3.org/1999/xlink" viewBox="0 0 1007.19 560.37"><defs><style>.cls-1,.cls-2,.cls-4,.cls-5{fill:none;}.cls-2{stroke:red;stroke-width:0.1px;}.cls-2,.cls-4{stroke-miterlimit:22.93;}.cls-3{clip-path:url(#clip-path);}.cls-4,.cls-5{stroke:#f48120;stroke-width:0.22px;}.cls-5{stroke-miterlimit:5;}.cls-6,.cls-9{font-size:12px;}.cls-12,.cls-6,.cls-9{fill:#231f20;font-family:Eng_HelvLine, Eng;}.cls-7{letter-spacing:-0.01em;}.cls-8{letter-spacing:-0.01em;}.cls-9{letter-spacing:0em;}.cls-10{letter-spacing:-0.01em;}.cls-11{letter-spacing:0em;}.cls-12{font-size:25.61px;}.cls-13{letter-spacing:-0.01em;}.cls-14{letter-spacing:0em;}.cls-15{letter-spacing:0em;}</style><clipPath id="clip-path" transform="translate(-11.51 -11.7)"><rect class="cls-1" width="2304" height="1440"/></clipPath></defs><title>arduino-enclosure-v5</title><g id="sidePower"><g id="sidePower-2" data-name="sidePower"><path class="cls-2" d="M713.85,413.13V396.2H742.2v16.93h99.21V396.2h28.35v16.93H969V396.2h28.35v16.93h21.33V554.86H997.3V572H969V554.86H869.76V572H841.41V554.86H742.2V572H713.85V554.86H692.66V413.13Zm67.32,97.72V434.32c0-3.91,3.18-7.09,6.49-7l40.29,0a7.09,7.09,0,0,1,7.08,7.09v76.53a7.08,7.08,0,0,1-7.08,7.09H788.26A7.09,7.09,0,0,1,781.17,510.85ZM700.81,457V434.32c0-3.91,3.18-7.09,6.49-7l23.28,0a7.09,7.09,0,0,1,7.08,7.09V457a7.08,7.08,0,0,1-7.08,7.08H707.9A7.09,7.09,0,0,1,700.81,457Z" transform="translate(-11.51 -11.7)"/></g></g><g id="side"><polygon id="side-2" data-name="side" class="cls-2" points="304.85 543.14 304.85 560.32 276.5 560.32 276.5 543.14 177.29 543.14 177.29 560.32 148.94 560.32 148.94 543.14 49.73 543.14 49.73 560.32 21.38 560.32 21.38 543.14 0.05 543.14 0.05 401.41 21.4 401.41 21.32 384.5 49.66 384.5 49.74 401.41 148.94 401.41 148.86 384.5 177.21 384.5 177.29 401.41 276.5 401.41 276.42 384.5 304.76 384.5 304.85 401.41 326.03 401.41 326.03 543.14 304.85 543.14"/></g><g id="side-3" data-name="side"><polygon id="side-4" data-name="side" class="cls-2" points="638.97 543.14 638.97 560.32 610.62 560.32 610.62 543.14 511.41 543.14 511.41 560.32 483.06 560.32 483.06 543.14 383.85 543.14 383.85 560.32 355.5 560.32 355.5 543.14 334.17 543.14 334.17 401.41 355.52 401.41 355.44 384.5 383.79 384.5 383.86 401.41 483.06 401.41 482.98 384.5 511.33 384.5 511.41 401.41 610.62 401.41 610.54 384.5 638.88 384.5 638.97 401.41 660.15 401.41 660.15 543.14 638.97 543.14"/></g><g id="sideAux"><g id="sideAux-2" data-name="sideAux"><path class="cls-2" d="M805.34,324.88l-17-.07V296.46l17,.07V282.36h49.6a7.08,7.08,0,0,0,7.09-7.09V218.58a7.09,7.09,0,0,0-7.09-7.09h-49.6V197.32l-17-.07V168.9l17,.07V154.8h49.6a7.08,7.08,0,0,0,7.09-7.09V91a7.08,7.08,0,0,0-7.09-7.08h-49.6V69.76l-17-.07V41.34l17,.08V20.09H947.07V41.43h17V69.78h-17V169h17v28.35h-17v99.21h17v28.35h-17v21.19H805.34Z" transform="translate(-11.51 -11.7)"/></g></g><g id="bottom"><g id="cut"><g class="cls-3"><path class="cls-2" d="M753.47,372.45a7.23,7.23,0,1,1,7.23,7.23A7.23,7.23,0,0,1,753.47,372.45Z" transform="translate(-11.51 -11.7)"/><rect class="cls-2" x="390.61" y="2.17" width="377.01" height="377.01" rx="14.17"/><rect class="cls-2" x="744.65" y="48.94" width="9.07" height="28.35"/><rect class="cls-2" x="744.65" y="304.06" width="9.07" height="28.35"/><rect class="cls-2" x="404.49" y="176.5" width="9.07" height="28.35"/><rect class="cls-2" x="404.49" y="48.94" width="9.07" height="28.35"/><rect class="cls-2" x="404.49" y="304.06" width="9.07" height="28.35"/><rect class="cls-2" x="692.49" y="16.06" width="28.35" height="9.07"/><rect class="cls-2" x="437.38" y="16.06" width="28.35" height="9.07"/><rect class="cls-2" x="437.38" y="356.22" width="28.35" height="9.07"/><rect class="cls-2" x="692.49" y="356.22" width="28.35" height="9.07"/><path class="cls-2" d="M688.41,189.26a4.25,4.25,0,1,0,4.25,4.25A4.26,4.26,0,0,0,688.41,189.26Z" transform="translate(-11.51 -11.7)"/><path class="cls-2" d="M543.84,66.66a4.25,4.25,0,1,0,4.26,4.25A4.26,4.26,0,0,0,543.84,66.66Z" transform="translate(-11.51 -11.7)"/><path class="cls-2" d="M753.47,32.29a7.23,7.23,0,1,1,7.23,7.23A7.23,7.23,0,0,1,753.47,32.29Z" transform="translate(-11.51 -11.7)"/><path class="cls-2" d="M413.31,372.45a7.23,7.23,0,1,1,7.23,7.23A7.23,7.23,0,0,1,413.31,372.45Z" transform="translate(-11.51 -11.7)"/><path class="cls-2" d="M413.31,32.29a7.23,7.23,0,1,1,7.23,7.23A7.23,7.23,0,0,1,413.31,32.29Z" transform="translate(-11.51 -11.7)"/><path class="cls-4" d="M731.26,140.89h18v33.05h-18v26.78H548.38l-4.32-4.32V164l-7.2-7.2" transform="translate(-11.51 -11.7)"/><rect class="cls-2" x="564.94" y="16.06" width="28.35" height="9.07"/><rect class="cls-2" x="564.94" y="356.22" width="28.35" height="9.07"/><rect class="cls-2" x="744.65" y="176.5" width="9.07" height="28.35"/></g></g><g id="etch"><g id="Breadboard"><g class="cls-3"><path class="cls-5" d="M623.31,318v-.87c0-1.14.46-2.09,1.56-2.09s1.57,1,1.57,2.08a6.83,6.83,0,0,1,0,.88Zm-3.39,0a4.12,4.12,0,0,1-.08-.93c0-1.05.38-1.77,1.32-1.77.78,0,1.36.64,1.36,1.75V318Zm7.24,1a11.75,11.75,0,0,0,.1-1.62,4.06,4.06,0,0,0-.76-2.8,2.19,2.19,0,0,0-1.62-.68,2.07,2.07,0,0,0-2,1.67h0a1.92,1.92,0,0,0-1.77-1.37,1.69,1.69,0,0,0-1.43.67,3.35,3.35,0,0,0-.59,2.22,9.84,9.84,0,0,0,.17,1.91Z" transform="translate(-11.51 -11.7)"/><path class="cls-5" d="M627.19,312.57v-1h-3.1a3.37,3.37,0,0,1-.49,0,1.48,1.48,0,0,1-1.36-1.42,1.88,1.88,0,0,1,0-.36h-1a1.39,1.39,0,0,0,0,.3,1.74,1.74,0,0,0,1.27,1.61v.05l-1.14,0v.92c.54,0,1.13-.05,1.81-.05Z" transform="translate(-11.51 -11.7)"/><path class="cls-5" d="M623.72,308.17a1.75,1.75,0,0,1-1.72-1.62,1.5,1.5,0,0,1,1.72-1.46Zm.76-4.07a4.92,4.92,0,0,0-.5,0,2.46,2.46,0,0,0-2.73,2.4c0,1.69,1.38,2.72,3.13,2.72a2.7,2.7,0,0,0,2.93-2.86,4.67,4.67,0,0,0-.36-1.93l-.76.18a3.8,3.8,0,0,1,.3,1.61,1.85,1.85,0,0,1-2,2Z" transform="translate(-11.51 -11.7)"/><path class="cls-5" d="M625.23,299.7a1,1,0,0,1,.34.06,1.45,1.45,0,0,1,1,1.4.94.94,0,0,1-1,1c-1.13,0-1.33-1.31-1.31-2.46Zm2-1.12a8.4,8.4,0,0,1-1.39.1h-2.18c-1.16,0-2.37.43-2.37,2.21a3.6,3.6,0,0,0,.51,1.9l.7-.24A2.9,2.9,0,0,1,622,301a1.19,1.19,0,0,1,1.34-1.32h.12c0,2.25.76,3.49,2.16,3.49a1.65,1.65,0,0,0,1.67-1.77,2.19,2.19,0,0,0-.86-1.78v0l.73-.09Z" transform="translate(-11.51 -11.7)"/><path class="cls-5" d="M624.75,293a2.24,2.24,0,0,1,.46.05,1.59,1.59,0,0,1,1.26,1.55c0,1.14-1,1.72-2.15,1.72s-2.24-.65-2.24-1.74a1.56,1.56,0,0,1,1.22-1.53,2.2,2.2,0,0,1,.44-.05Zm-6.08,0h3.47v0a1.93,1.93,0,0,0-.89,1.75c0,1.42,1.19,2.62,3.12,2.6,1.76,0,3-1.08,3-2.48a2.14,2.14,0,0,0-1.14-2v0l1-.05v-.95c-.4,0-1,0-1.5,0h-7Z" transform="translate(-11.51 -11.7)"/><path class="cls-5" d="M623.82,289.16a1.8,1.8,0,0,1-.44-.06,1.68,1.68,0,0,1-1.29-1.61c0-1.12,1-1.72,2.16-1.72,1.33,0,2.23.66,2.23,1.76a1.61,1.61,0,0,1-1.24,1.58,1.58,1.58,0,0,1-.38.05Zm3.37.18-1,0v0a2.07,2.07,0,0,0,1.09-1.95c0-1.29-1-2.6-3.11-2.6-1.76,0-3,1-3,2.45a2.17,2.17,0,0,0,1.07,2v0h-3.65v1h7c.51,0,1.1,0,1.5,0Z" transform="translate(-11.51 -11.7)"/><path class="cls-5" d="M622,280.94c0-1.25,1.25-1.74,2.23-1.74,1.31,0,2.26.76,2.26,1.77s-1,1.76-2.23,1.76C623.19,282.73,622,282.19,622,280.94Zm-.79,0a2.83,2.83,0,0,0,3.08,2.88,2.76,2.76,0,0,0,3-2.79,2.84,2.84,0,0,0-3.08-2.89A2.75,2.75,0,0,0,621.25,280.92Z" transform="translate(-11.51 -11.7)"/><path class="cls-5" d="M625.23,273.73a1,1,0,0,1,.34.06,1.45,1.45,0,0,1,1,1.4.94.94,0,0,1-1,1c-1.13,0-1.33-1.31-1.31-2.46Zm2-1.12a7.44,7.44,0,0,1-1.39.1h-2.18c-1.16,0-2.37.43-2.37,2.21a3.63,3.63,0,0,0,.51,1.91l.7-.24a3,3,0,0,1-.43-1.52,1.2,1.2,0,0,1,1.34-1.32h.12c0,2.25.76,3.5,2.16,3.5a1.66,1.66,0,0,0,1.67-1.78,2.19,2.19,0,0,0-.86-1.78v0l.73-.09Z" transform="translate(-11.51 -11.7)"/><path class="cls-5" d="M627.19,271V270h-3.1a2.38,2.38,0,0,1-.49,0,1.48,1.48,0,0,1-1.36-1.41,1.79,1.79,0,0,1,0-.36h-1a1.32,1.32,0,0,0,0,.3,1.75,1.75,0,0,0,1.27,1.61v0l-1.14,0v.92c.54,0,1.13,0,1.81,0Z" transform="translate(-11.51 -11.7)"/><path class="cls-5" d="M624.75,263.24a1.71,1.71,0,0,1,.46.05,1.59,1.59,0,0,1,1.26,1.55c0,1.14-1,1.71-2.15,1.71s-2.24-.64-2.24-1.74a1.55,1.55,0,0,1,1.22-1.52,1.65,1.65,0,0,1,.44-.05Zm-6.08,0h3.47v0a1.93,1.93,0,0,0-.89,1.75c0,1.41,1.19,2.61,3.12,2.6,1.76,0,3-1.08,3-2.48a2.14,2.14,0,0,0-1.14-2v0l1,0v-.95c-.4,0-1,.05-1.5.05h-7Z" transform="translate(-11.51 -11.7)"/><text class="cls-6" transform="translate(615.68 308.26) rotate(-90)">B<tspan class="cls-7" x="6.5" y="0">r</tspan><tspan x="10.32" y="0">eadboa</tspan><tspan class="cls-8" x="48.08" y="0">r</tspan><tspan x="51.89" y="0">d</tspan></text></g></g><g id="Arduino"><g class="cls-3"><path class="cls-5" d="M644.42,150.68l-2.34-.79c-.49-.16-1-.29-1.46-.41v0c.47-.12,1-.24,1.47-.42l2.33-.79Zm.82-2.65,2.54-.87v-1.11l-8.09,2.76v1.26l8.09,2.74v-1.08l-2.54-.84Z" transform="translate(-11.51 -11.7)"/><path class="cls-5" d="M647.78,144.93v-1h-3.09a3.68,3.68,0,0,1-.5,0,1.48,1.48,0,0,1-1.35-1.42,1.94,1.94,0,0,1,0-.36h-1a1,1,0,0,0,0,.3,1.74,1.74,0,0,0,1.27,1.61V144l-1.14,0V145c.54,0,1.13,0,1.82,0Z" transform="translate(-11.51 -11.7)"/><path class="cls-5" d="M645.35,137.17a2.15,2.15,0,0,1,.45,0,1.6,1.6,0,0,1,1.26,1.55c0,1.14-1,1.72-2.15,1.72s-2.24-.65-2.24-1.74a1.56,1.56,0,0,1,1.22-1.53,2.28,2.28,0,0,1,.45,0Zm-6.09,0h3.47v0a1.93,1.93,0,0,0-.89,1.75c0,1.42,1.19,2.62,3.12,2.61,1.77,0,2.95-1.08,2.95-2.49a2.15,2.15,0,0,0-1.14-2v0l1-.05v-.95c-.4,0-1,.05-1.5.05h-7Z" transform="translate(-11.51 -11.7)"/><path class="cls-5" d="M642,129.5v1.05h3.57a1.57,1.57,0,0,1,.54.1,1.53,1.53,0,0,1,1,1.39c0,1-.75,1.3-1.85,1.3H642v1h3.4c2,0,2.54-1.09,2.54-2a2.19,2.19,0,0,0-1.08-1.92v0l.95-.06v-.94c-.45,0-1,.05-1.58.05Z" transform="translate(-11.51 -11.7)"/><path class="cls-5" d="M639.68,127.22a.65.65,0,0,0,.66.66.63.63,0,0,0,.65-.64.66.66,0,1,0-1.31,0Zm8.1-.53H642v1.06h5.81Z" transform="translate(-11.51 -11.7)"/><path class="cls-5" d="M647.78,124.94v-1.06h-3.49a1.45,1.45,0,0,1-.49-.07,1.5,1.5,0,0,1-1.08-1.42c0-1,.78-1.34,1.71-1.34h3.35V120h-3.47c-2,0-2.47,1.25-2.47,2.06a2.14,2.14,0,0,0,1.09,1.92v0l-1,.06V125c.48,0,1,0,1.58,0Z" transform="translate(-11.51 -11.7)"/><path class="cls-5" d="M642.63,115.84c0-1.25,1.25-1.74,2.23-1.74,1.31,0,2.26.76,2.26,1.77s-1,1.76-2.23,1.76C643.78,117.63,642.63,117.09,642.63,115.84Zm-.79,0a2.83,2.83,0,0,0,3.08,2.88,2.76,2.76,0,0,0,3-2.79,2.83,2.83,0,0,0-3.08-2.89A2.75,2.75,0,0,0,641.84,115.82Z" transform="translate(-11.51 -11.7)"/><text class="cls-9" transform="translate(636.27 141.42) rotate(-90)">A<tspan class="cls-10" x="7.32" y="0">r</tspan><tspan class="cls-11" x="11.12" y="0">duino</tspan></text></g></g></g></g><g id="top"><g id="cut-2" data-name="cut"><g class="cls-3"><circle class="cls-2" cx="115.05" cy="87.83" r="10.63" transform="translate(-38.09 46.27) rotate(-25.45)"/><circle class="cls-2" cx="174.55" cy="87.83" r="10.63" transform="translate(-31.83 61.79) rotate(-22.5)"/><circle class="cls-2" cx="289.27" cy="87.83" r="10.63" transform="translate(-23.1 105.69) rotate(-22.5)"/><circle class="cls-2" cx="233.91" cy="87.83" r="10.63" transform="translate(-27.31 84.5) rotate(-22.5)"/><rect class="cls-2" x="357.98" y="174.38" width="9.07" height="28.35"/><rect class="cls-2" x="17.82" y="174.38" width="9.07" height="28.35"/><rect class="cls-2" x="178.26" y="354.1" width="28.35" height="9.07"/><path class="cls-2" d="M33.87,363.1a7.23,7.23,0,1,1-7.23,7.23A7.23,7.23,0,0,1,33.87,363.1Z" transform="translate(-11.51 -11.7)"/><rect class="cls-2" x="3.93" y="0.05" width="377.01" height="377.01" rx="14.17"/><rect class="cls-2" x="305.82" y="354.1" width="28.35" height="9.07"/><rect class="cls-2" x="50.7" y="354.1" width="28.35" height="9.07"/><rect class="cls-2" x="178.26" y="13.94" width="28.35" height="9.07"/><rect class="cls-2" x="305.82" y="13.94" width="28.35" height="9.07"/><rect class="cls-2" x="50.7" y="13.94" width="28.35" height="9.07"/><rect class="cls-2" x="357.98" y="301.94" width="9.07" height="28.35"/><rect class="cls-2" x="357.98" y="46.82" width="9.07" height="28.35"/><rect class="cls-2" x="17.82" y="46.82" width="9.07" height="28.35"/><rect class="cls-2" x="17.82" y="301.94" width="9.07" height="28.35"/><path class="cls-2" d="M374,363.1a7.23,7.23,0,1,1-7.23,7.23A7.23,7.23,0,0,1,374,363.1Z" transform="translate(-11.51 -11.7)"/><path class="cls-2" d="M33.87,22.94a7.23,7.23,0,1,1-7.23,7.23A7.23,7.23,0,0,1,33.87,22.94Z" transform="translate(-11.51 -11.7)"/><path class="cls-2" d="M374,22.94a7.23,7.23,0,1,1-7.23,7.23A7.23,7.23,0,0,1,374,22.94Z" transform="translate(-11.51 -11.7)"/></g></g><g id="etch-2" data-name="etch"><text class="cls-12" transform="translate(51.71 325.44)">analog<tspan class="cls-13" x="73.33" y="0">S</tspan><tspan class="cls-14" x="85.78" y="0">y</tspan><tspan class="cls-15" x="97.84" y="0">n</tspan><tspan x="111.98" y="0">thClub</tspan></text></g></g></svg>